<svg width="18" height="24" viewBox="0 0 18 24" fill="none" xmlns="http://www.w3.org/2000/svg">
<path d="M15 3H13.5C13.5 1.34 11.48 0 9 0C6.51 0 4.5 1.34 4.5 3H3C1.35 3 0 4.34 0 6V21C0 22.65 1.35 23.99 3 23.99H15C16.65 23.99 17.99 22.65 17.99 21V6C17.99 4.34 16.65 3 15 3ZM9 1.5C10.66 1.5 12 1.96 12 3H6C6 1.96 7.34 1.5 9 1.5ZM16.49 21C16.49 21.82 15.82 22.49 15 22.49H3C2.17 22.49 1.5 21.82 1.5 21V19.5H16.49V21ZM16.49 18H1.5V6C1.5 5.17 2.17 4.5 3 4.5H4.5V9H6V4.5H12V9H13.5V4.5H15C15.82 4.5 16.49 5.17 16.49 6V18Z" fill="white"/>
</svg>
