<svg width="24" height="24" viewBox="0 0 24 24" fill="none" xmlns="http://www.w3.org/2000/svg">
<path d="M23.76 22.68L17.57 16.59C19.19 14.82 20.19 12.49 20.19 9.93C20.19 4.44 15.67 0 10.09 0C4.52 0 0 4.44 0 9.93C0 15.42 4.52 19.86 10.09 19.86C12.5 19.86 14.71 19.03 16.45 17.64L22.66 23.76C22.97 24.06 23.46 24.06 23.76 23.76C24.06 23.46 24.06 22.98 23.76 22.68ZM10.09 18.33C5.38 18.33 1.55 14.57 1.55 9.93C1.55 5.29 5.38 1.52 10.09 1.52C14.81 1.52 18.63 5.29 18.63 9.93C18.63 14.57 14.81 18.33 10.09 18.33Z" fill="white"/>
</svg>
