<svg width="184" height="55" viewBox="0 0 184 55" fill="none" xmlns="http://www.w3.org/2000/svg">
<path d="M36.7508 10.6928H26.2492L31.495 19.8594L36.7508 10.6928ZM24.9402 11.4608L19.6844 20.6275H30.186L24.9402 11.4608ZM43.3156 20.6275L38.0598 11.4608L32.814 20.6275H43.3156ZM32.814 22.1536L38.0598 31.3203L43.3156 22.1536H32.814ZM19.6844 22.1536L24.9402 31.3203L30.186 22.1536H19.6844ZM13.1196 32.0783H23.6213L18.3754 22.9217L13.1196 32.0783ZM49.8704 32.0783L44.6246 22.9217L39.3787 32.0783H49.8704ZM31.495 0L26.2492 9.16667H36.7508L31.495 0ZM44.6246 42.7711L49.8704 33.6144H39.3787L44.6246 42.7711ZM18.3754 42.7711L23.6213 33.6144H13.1196L18.3754 42.7711ZM6.56479 43.5392H17.0565L11.8106 34.3725L6.56479 43.5392ZM56.4352 43.5392L51.1894 34.3725L45.9335 43.5392H56.4352ZM45.9335 45.0653L51.1894 54.232L56.4352 45.0653H45.9335ZM32.814 45.0653L38.0598 54.232L43.3156 45.0653H32.814ZM11.8106 54.232L17.0565 45.0653H6.56479L11.8106 54.232ZM0 55H10.5017L5.24584 45.8333L0 55ZM26.2492 55H36.7508L31.495 45.8333L26.2492 55ZM39.3787 55H49.8704L44.6246 45.8333L39.3787 55ZM57.7542 45.8333L52.4983 55H63L57.7542 45.8333Z" fill="white"/>
<path d="M75.104 15.03H77.348L80.748 23.598L84.182 15.03H86.46L82.244 25.332L86.868 36.246L95.606 14.86H98.19L87.956 39H85.848L80.782 27.066L75.682 39H73.608L63.408 14.86H65.958L74.73 36.246L79.32 25.332L75.104 15.03ZM97.8896 33.9C97.8896 32.812 98.2069 31.8713 98.8416 31.078C99.4762 30.262 100.349 29.6273 101.46 29.174C102.593 28.7207 103.896 28.494 105.37 28.494C106.231 28.494 107.126 28.5733 108.056 28.732C108.985 28.868 109.812 29.0607 110.538 29.31V27.814C110.538 26.318 110.096 25.128 109.212 24.244C108.328 23.36 107.104 22.918 105.54 22.918C104.61 22.918 103.681 23.0993 102.752 23.462C101.822 23.802 100.859 24.312 99.8616 24.992L98.9776 23.36C100.134 22.5667 101.267 21.9773 102.378 21.592C103.488 21.184 104.622 20.98 105.778 20.98C107.954 20.98 109.676 21.6033 110.946 22.85C112.215 24.0967 112.85 25.8193 112.85 28.018V36.212C112.85 36.824 113.133 37.1413 113.7 37.164V39C113.201 39.068 112.85 39.0907 112.646 39.068C112.079 39.0453 111.648 38.864 111.354 38.524C111.059 38.184 110.9 37.8213 110.878 37.436L110.844 36.144C110.05 37.164 109.019 37.9573 107.75 38.524C106.48 39.068 105.188 39.34 103.874 39.34C102.718 39.34 101.686 39.102 100.78 38.626C99.8729 38.1273 99.1589 37.47 98.6376 36.654C98.1389 35.8153 97.8896 34.8973 97.8896 33.9ZM109.756 35.26C110.277 34.648 110.538 34.0813 110.538 33.56V30.976C108.974 30.364 107.342 30.058 105.642 30.058C103.987 30.058 102.65 30.3867 101.63 31.044C100.61 31.7013 100.1 32.5967 100.1 33.73C100.1 34.7047 100.474 35.5887 101.222 36.382C101.992 37.1753 103.058 37.572 104.418 37.572C105.528 37.572 106.56 37.3567 107.512 36.926C108.486 36.4953 109.234 35.94 109.756 35.26ZM118.389 21.286L123.591 28.222L123.863 28.732L124.135 28.222L129.303 21.286H131.921L125.189 30.194L131.921 39H129.303L124.135 32.098L123.863 31.622L123.591 32.098L118.423 39H115.805L122.503 30.194L115.805 21.286H118.389ZM141.729 39.34C140.029 39.34 138.51 38.9207 137.173 38.082C135.858 37.2433 134.827 36.1327 134.079 34.75C133.331 33.3447 132.957 31.826 132.957 30.194C132.957 28.5393 133.331 27.0207 134.079 25.638C134.85 24.2327 135.892 23.1107 137.207 22.272C138.544 21.4107 140.052 20.98 141.729 20.98C143.429 20.98 144.936 21.4107 146.251 22.272C147.588 23.1107 148.631 24.2327 149.379 25.638C150.15 27.0207 150.535 28.5393 150.535 30.194C150.535 31.826 150.161 33.3447 149.413 34.75C148.665 36.1327 147.622 37.2433 146.285 38.082C144.97 38.9207 143.452 39.34 141.729 39.34ZM135.303 30.228C135.303 31.5427 135.586 32.744 136.153 33.832C136.742 34.8973 137.524 35.7473 138.499 36.382C139.474 36.994 140.55 37.3 141.729 37.3C142.908 37.3 143.984 36.9827 144.959 36.348C145.934 35.7133 146.716 34.852 147.305 33.764C147.894 32.676 148.189 31.4747 148.189 30.16C148.189 28.8453 147.894 27.644 147.305 26.556C146.716 25.468 145.934 24.6067 144.959 23.972C143.984 23.3373 142.908 23.02 141.729 23.02C140.573 23.02 139.508 23.3487 138.533 24.006C137.558 24.6407 136.776 25.502 136.187 26.59C135.598 27.678 135.303 28.8907 135.303 30.228ZM180.752 39H178.44V29.106C178.44 27.066 178.111 25.5587 177.454 24.584C176.796 23.5867 175.822 23.088 174.53 23.088C173.17 23.088 171.968 23.564 170.926 24.516C169.883 25.468 169.146 26.692 168.716 28.188V39H166.404V29.106C166.404 27.0207 166.075 25.502 165.418 24.55C164.783 23.5753 163.82 23.088 162.528 23.088C161.19 23.088 159.989 23.5527 158.924 24.482C157.881 25.4113 157.144 26.6353 156.714 28.154V39H154.402V21.286H156.51V25.298C157.235 23.938 158.187 22.884 159.366 22.136C160.544 21.3653 161.848 20.98 163.276 20.98C164.749 20.98 165.939 21.4107 166.846 22.272C167.752 23.1107 168.308 24.1987 168.512 25.536C170.144 22.4987 172.422 20.98 175.346 20.98C177.34 20.98 178.734 21.6827 179.528 23.088C180.344 24.4707 180.752 26.318 180.752 28.63V39Z" fill="white"/>
</svg>
